# xmcd
#
# Track frame offsets:
#	150
#	14936
#	33838
#	52915
#	68945
#	84078
#	100787
#	118287
#	131741
#	148487
#	165815
#	182855
#	203939
#	222926
#	237604
#	253964
#
# Disc length: 3627 seconds
#
# Revision: 6
# Processed by: cddbd v1.5.2PL0 Copyright (c) Steve Scherf et al.
# Submitted via: EasyCDDAExtractor 15.3.0.1
#
DISCID=f20e2910
DTITLE=Gloria Estefan - 90 Millas (Deluxe Edition)
DYEAR=2007
DGENRE=Latin
TTITLE0=Me Odio
TTITLE1=No Llores
TTITLE2=Lo Nuestro
TTITLE3=Pintame De Colores
TTITLE4=Caridad
TTITLE5=Yo No Cambiaria
TTITLE6=Besame
TTITLE7=Refranes
TTITLE8=A Bailar
TTITLE9=Esta Fiesta No Va' Acabar
TTITLE10=Volvere
TTITLE11=Esperando (Cuando Cuba Sea Libre)
TTITLE12=Morenita
TTITLE13=90 Millas
TTITLE14=Vueltas Da La Vida (Bonus Track)
TTITLE15=No Llores Remix (Featuring Wisin Y Yandel) (Bonus Track)
EXTD=
EXTT0=
EXTT1=
EXTT2=
EXTT3=
EXTT4=
EXTT5=
EXTT6=
EXTT7=
EXTT8=
EXTT9=
EXTT10=
EXTT11=
EXTT12=
EXTT13=
EXTT14=
EXTT15=
PLAYORDER=
